<svg width="9" height="9" viewBox="0 0 9 9" fill="none" xmlns="http://www.w3.org/2000/svg">
<g clip-path="url(#clip0_331_646)">
<path d="M11.612 4.33506H2.32793L4.75385 6.42783C4.90619 6.55925 4.90619 6.77002 4.75385 6.90144C4.60152 7.03285 4.3572 7.03285 4.20486 6.90144L1.11497 4.23587C1.04311 4.17388 1 4.0871 1 4.00031C1 3.91352 1.04024 3.82674 1.11497 3.76475L4.20486 1.09918C4.27959 1.03471 4.38019 1 4.47792 1C4.57565 1 4.67625 1.03223 4.75098 1.09918C4.90332 1.2306 4.90332 1.44137 4.75098 1.57279L2.32793 3.66556H11.612C11.8275 3.66556 12 3.81434 12 4.00031C12 4.18628 11.8275 4.33506 11.612 4.33506Z" fill="white"/>
</g>
<defs>
<clipPath id="clip0_331_646">
<rect width="9" height="9" fill="white" transform="matrix(1 0 0 -1 0 9)"/>
</clipPath>
</defs>
</svg>
