<svg width="72" height="78" viewBox="0 0 72 78" fill="none" xmlns="http://www.w3.org/2000/svg">
<path d="M70.8106 75H1.18941C0.532547 75 0 75.5324 0 76.1894C0 76.8464 0.532547 77.3788 1.18941 77.3788H70.8106C71.4675 77.3788 72 76.8464 72 76.1894C72 75.5324 71.4675 75 70.8106 75Z" fill="#22337D"/>
<path d="M18.8748 13.5619V9.64449C19.7055 9.91674 20.2276 10.4648 20.2276 10.973C20.2276 11.5955 20.7323 12.1004 21.355 12.1004C21.9777 12.1004 22.4824 11.5957 22.4824 10.973C22.4824 9.17523 20.9682 7.71076 18.8748 7.31912V7.13996C18.8748 6.51742 18.3701 6.01257 17.7474 6.01257C17.1247 6.01257 16.62 6.51728 16.62 7.13996V7.31912C14.5268 7.7109 13.0125 9.17537 13.0125 10.973C13.0125 13.4848 15.0186 14.5405 16.62 15.1481V19.0657C15.7894 18.7934 15.2672 18.2454 15.2672 17.7372C15.2672 17.1146 14.7625 16.6098 14.1398 16.6098C13.5172 16.6098 13.0125 17.1145 13.0125 17.7372C13.0125 19.5349 14.5267 20.9994 16.62 21.391V21.5702C16.62 22.1927 17.1247 22.6976 17.7474 22.6976C18.3701 22.6976 18.8748 22.1929 18.8748 21.5702V21.391C20.968 20.9992 22.4824 19.5348 22.4824 17.7372C22.4824 15.2252 20.4763 14.1695 18.8748 13.5619ZM16.6202 12.6885C15.4963 12.1376 15.2674 11.6566 15.2674 10.973C15.2674 10.4648 15.7895 9.91674 16.6202 9.64449V12.6885ZM18.8748 19.0655V16.0216C19.9987 16.5724 20.2276 17.0535 20.2276 17.737C20.2276 18.2453 19.7055 18.7933 18.8748 19.0655Z" fill="#22337D"/>
<path d="M35.7852 8.41754H26.1652C25.5427 8.41754 25.0378 8.92224 25.0378 9.54493C25.0378 10.1675 25.5425 10.6723 26.1652 10.6723H35.7852C36.4078 10.6723 36.9126 10.1676 36.9126 9.54493C36.9126 8.92238 36.4078 8.41754 35.7852 8.41754Z" fill="#22337D"/>
<path d="M27.3677 18.0377H26.1652C25.5427 18.0377 25.0378 18.5424 25.0378 19.1651C25.0378 19.7878 25.5425 20.2925 26.1652 20.2925H27.3677C27.9903 20.2925 28.4951 19.7878 28.4951 19.1651C28.4951 18.5424 27.9903 18.0377 27.3677 18.0377Z" fill="#22337D"/>
<path d="M47.8103 26.455H14.1401C13.5175 26.455 13.0127 26.9597 13.0127 27.5823C13.0127 28.205 13.5174 28.7097 14.1401 28.7097H47.8103C48.4329 28.7097 48.9377 28.205 48.9377 27.5823C48.9377 26.9597 48.4329 26.455 47.8103 26.455Z" fill="#22337D"/>
<path d="M24.9625 33.67H21.3549C20.7324 33.67 20.2275 34.1747 20.2275 34.7974C20.2275 35.4201 20.7322 35.9248 21.3549 35.9248H24.9625C25.5851 35.9248 26.0899 35.4201 26.0899 34.7974C26.0899 34.1747 25.5852 33.67 24.9625 33.67Z" fill="#22337D"/>
<path d="M16.5451 33.67H14.1401C13.5175 33.67 13.0127 34.1747 13.0127 34.7974C13.0127 35.4201 13.5174 35.9248 14.1401 35.9248H16.5451C17.1676 35.9248 17.6724 35.4201 17.6724 34.7974C17.6724 34.1747 17.1676 33.67 16.5451 33.67Z" fill="#22337D"/>
<path d="M24.9625 38.4801H21.3549C20.7324 38.4801 20.2275 38.9848 20.2275 39.6075C20.2275 40.23 20.7322 40.7349 21.3549 40.7349H24.9625C25.5851 40.7349 26.0899 40.2302 26.0899 39.6075C26.0899 38.9848 25.5852 38.4801 24.9625 38.4801Z" fill="#22337D"/>
<path d="M16.5451 38.4801H14.1401C13.5175 38.4801 13.0127 38.9848 13.0127 39.6075C13.0127 40.23 13.5174 40.7349 14.1401 40.7349H16.5451C17.1676 40.7349 17.6724 40.2302 17.6724 39.6075C17.6724 38.9848 17.1676 38.4801 16.5451 38.4801Z" fill="#22337D"/>
<path d="M24.9625 43.2902H21.3549C20.7324 43.2902 20.2275 43.7949 20.2275 44.4176C20.2275 45.0402 20.7322 45.5449 21.3549 45.5449H24.9625C25.5851 45.5449 26.0899 45.0402 26.0899 44.4176C26.0899 43.7949 25.5852 43.2902 24.9625 43.2902Z" fill="#22337D"/>
<path d="M16.5451 43.2902H14.1401C13.5175 43.2902 13.0127 43.7949 13.0127 44.4176C13.0127 45.0402 13.5174 45.5449 14.1401 45.5449H16.5451C17.1676 45.5449 17.6724 45.0402 17.6724 44.4176C17.6724 43.7949 17.1676 43.2902 16.5451 43.2902Z" fill="#22337D"/>
<path d="M24.9625 48.1001H21.3549C20.7324 48.1001 20.2275 48.6048 20.2275 49.2275C20.2275 49.8502 20.7322 50.3549 21.3549 50.3549H24.9625C25.5851 50.3549 26.0899 49.8502 26.0899 49.2275C26.0899 48.6048 25.5852 48.1001 24.9625 48.1001Z" fill="#22337D"/>
<path d="M16.5451 48.1001H14.1401C13.5175 48.1001 13.0127 48.6048 13.0127 49.2275C13.0127 49.8502 13.5174 50.3549 14.1401 50.3549H16.5451C17.1676 50.3549 17.6724 49.8502 17.6724 49.2275C17.6724 48.6048 17.1676 48.1001 16.5451 48.1001Z" fill="#22337D"/>
<path d="M24.9625 52.9102H21.3549C20.7324 52.9102 20.2275 53.4149 20.2275 54.0375C20.2275 54.6602 20.7322 55.1649 21.3549 55.1649H24.9625C25.5851 55.1649 26.0899 54.6602 26.0899 54.0375C26.0899 53.4149 25.5852 52.9102 24.9625 52.9102Z" fill="#22337D"/>
<path d="M16.5451 52.9102H14.1401C13.5175 52.9102 13.0127 53.4149 13.0127 54.0375C13.0127 54.6602 13.5174 55.1649 14.1401 55.1649H16.5451C17.1676 55.1649 17.6724 54.6602 17.6724 54.0375C17.6724 53.4149 17.1676 52.9102 16.5451 52.9102Z" fill="#22337D"/>
<path d="M39.3929 18.0377H38.1904C37.5678 18.0377 37.063 18.5424 37.063 19.1651C37.063 19.7878 37.5677 20.2925 38.1904 20.2925H39.3929C40.0154 20.2925 40.5203 19.7878 40.5203 19.1651C40.5203 18.5424 40.0154 18.0377 39.3929 18.0377Z" fill="#22337D"/>
<path d="M45.4053 18.0377H44.2028C43.5803 18.0377 43.0754 18.5424 43.0754 19.1651C43.0754 19.7878 43.5801 20.2925 44.2028 20.2925H45.4053C46.0279 20.2925 46.5327 19.7878 46.5327 19.1651C46.5327 18.5424 46.028 18.0377 45.4053 18.0377Z" fill="#22337D"/>
<path d="M33.3799 18.0377H32.1774C31.5549 18.0377 31.05 18.5424 31.05 19.1651C31.05 19.7878 31.5548 20.2925 32.1774 20.2925H33.3799C34.0025 20.2925 34.5073 19.7878 34.5073 19.1651C34.5073 18.5424 34.0025 18.0377 33.3799 18.0377Z" fill="#22337D"/>
<path d="M38.1901 13.2276H26.165C25.5424 13.2276 25.0376 13.7323 25.0376 14.355C25.0376 14.9777 25.5423 15.4824 26.165 15.4824H38.1901C38.8126 15.4824 39.3175 14.9777 39.3175 14.355C39.3175 13.7323 38.8128 13.2276 38.1901 13.2276Z" fill="#22337D"/>
<path d="M59.8353 31.265H54.9501V13.1525C54.9501 12.8535 54.8315 12.5668 54.62 12.3554L42.5947 0.330187C42.3833 0.118687 42.0966 0 41.7976 0H10.5324C8.58456 0 7 1.58456 7 3.53236V61.2526C7 63.2004 8.58456 64.7849 10.5324 64.7849H28.6451V67.2651C28.6451 69.876 30.7693 72 33.38 72H59.8352C62.446 72 64.57 69.8758 64.57 67.2651V35.9998C64.5701 33.389 62.446 31.265 59.8353 31.265ZM42.925 3.8489L51.1012 12.0251H45.4052C44.0376 12.0251 42.925 10.9125 42.925 9.54492V3.8489ZM28.6451 35.9998V62.5301H10.5324C9.82783 62.5301 9.25464 61.9569 9.25464 61.2524V3.53236C9.25464 2.82783 9.82783 2.25464 10.5324 2.25464H40.6702V9.54492C40.6702 12.1558 42.7944 14.2798 45.4051 14.2798H52.6954V31.2649H33.3801C30.7693 31.265 28.6451 33.389 28.6451 35.9998ZM62.3155 67.2651C62.3155 68.6327 61.2029 69.7453 59.8353 69.7453H33.3801C32.0125 69.7453 30.8999 68.6327 30.8999 67.2651V35.9998C30.8999 34.6323 32.0125 33.5196 33.3801 33.5196H59.8353C61.2029 33.5196 62.3155 34.6323 62.3155 35.9998V67.2651Z" fill="#22337D"/>
<path d="M57.4303 36.075H35.7852C34.5004 36.075 33.4553 37.1201 33.4553 38.4048V43.2149C33.4553 44.4997 34.5004 45.5448 35.7852 45.5448H57.4303C58.7151 45.5448 59.7602 44.4997 59.7602 43.2149V38.4048C59.7602 37.1201 58.7151 36.075 57.4303 36.075ZM57.5056 43.2149C57.5056 43.2564 57.4719 43.29 57.4305 43.29H35.7852C35.7437 43.29 35.7101 43.2564 35.7101 43.2149V38.4048C35.7101 38.3633 35.7437 38.3297 35.7852 38.3297H57.4303C57.4718 38.3297 57.5054 38.3633 57.5054 38.4048V43.2149H57.5056Z" fill="#22337D"/>
<path d="M38.1902 49.3026H35.7852C34.5004 49.3026 33.4553 50.3477 33.4553 51.6325V54.0375C33.4553 55.3222 34.5004 56.3673 35.7852 56.3673H38.1902C39.4749 56.3673 40.52 55.3222 40.52 54.0375V51.6325C40.52 50.3477 39.4749 49.3026 38.1902 49.3026ZM38.2654 54.0376C38.2654 54.0791 38.2318 54.1127 38.1903 54.1127H35.7852C35.7437 54.1127 35.7101 54.0791 35.7101 54.0376V51.6326C35.7101 51.5911 35.7437 51.5575 35.7852 51.5575H38.1902C38.2316 51.5575 38.2653 51.5911 38.2653 51.6326V54.0376H38.2654Z" fill="#22337D"/>
<path d="M57.4304 49.3026H55.0254C53.7407 49.3026 52.6956 50.3477 52.6956 51.6325V54.0375C52.6956 55.3222 53.7407 56.3673 55.0254 56.3673H57.4304C58.7151 56.3673 59.7603 55.3222 59.7603 54.0375V51.6325C59.7603 50.3477 58.7151 49.3026 57.4304 49.3026ZM57.5056 54.0376C57.5056 54.0791 57.472 54.1127 57.4305 54.1127H55.0256C54.9841 54.1127 54.9505 54.0791 54.9505 54.0376V51.6326C54.9505 51.5911 54.9841 51.5575 55.0256 51.5575H57.4305C57.472 51.5575 57.5056 51.5911 57.5056 51.6326V54.0376Z" fill="#22337D"/>
<path d="M47.8103 49.3026H45.4053C44.1206 49.3026 43.0754 50.3477 43.0754 51.6325V54.0375C43.0754 55.3222 44.1206 56.3673 45.4053 56.3673H47.8103C49.095 56.3673 50.1401 55.3222 50.1401 54.0375V51.6325C50.1401 50.3477 49.095 49.3026 47.8103 49.3026ZM47.8854 54.0376C47.8854 54.0791 47.8518 54.1127 47.8103 54.1127H45.4053C45.3638 54.1127 45.3302 54.0791 45.3302 54.0376V51.6326C45.3302 51.5911 45.3638 51.5575 45.4053 51.5575H47.8103C47.8518 51.5575 47.8854 51.5911 47.8854 51.6326V54.0376Z" fill="#22337D"/>
<path d="M38.1902 58.9227H35.7852C34.5004 58.9227 33.4553 59.9678 33.4553 61.2525V63.6575C33.4553 64.9423 34.5004 65.9874 35.7852 65.9874H38.1902C39.4749 65.9874 40.52 64.9423 40.52 63.6575V61.2525C40.52 59.9678 39.4749 58.9227 38.1902 58.9227ZM38.2654 63.6575C38.2654 63.699 38.2318 63.7326 38.1903 63.7326H35.7852C35.7437 63.7326 35.7101 63.699 35.7101 63.6575V61.2525C35.7101 61.2111 35.7437 61.1774 35.7852 61.1774H38.1902C38.2316 61.1774 38.2653 61.2111 38.2653 61.2525V63.6575H38.2654Z" fill="#22337D"/>
<path d="M57.4304 58.9227H55.0254C53.7407 58.9227 52.6956 59.9678 52.6956 61.2525V63.6575C52.6956 64.9423 53.7407 65.9874 55.0254 65.9874H57.4304C58.7151 65.9874 59.7603 64.9423 59.7603 63.6575V61.2525C59.7603 59.9678 58.7151 58.9227 57.4304 58.9227ZM57.5056 63.6575C57.5056 63.699 57.472 63.7326 57.4305 63.7326H55.0256C54.9841 63.7326 54.9505 63.699 54.9505 63.6575V61.2525C54.9505 61.2111 54.9841 61.1774 55.0256 61.1774H57.4305C57.472 61.1774 57.5056 61.2111 57.5056 61.2525V63.6575Z" fill="#22337D"/>
<path d="M47.8103 58.9227H45.4053C44.1206 58.9227 43.0754 59.9678 43.0754 61.2525V63.6575C43.0754 64.9423 44.1206 65.9874 45.4053 65.9874H47.8103C49.095 65.9874 50.1401 64.9423 50.1401 63.6575V61.2525C50.1401 59.9678 49.095 58.9227 47.8103 58.9227ZM47.8854 63.6575C47.8854 63.699 47.8518 63.7326 47.8103 63.7326H45.4053C45.3638 63.7326 45.3302 63.699 45.3302 63.6575V61.2525C45.3302 61.2111 45.3638 61.1774 45.4053 61.1774H47.8103C47.8518 61.1774 47.8854 61.2111 47.8854 61.2525V63.6575Z" fill="#22337D"/>
</svg>
