<svg width="23" height="25" viewBox="0 0 23 25" fill="none" xmlns="http://www.w3.org/2000/svg">
<path d="M10.8289 9.81055H7.71777V12.5533H10.8289V9.81055Z" fill="#002469"/>
<path d="M14.9833 9.81055H11.8728V12.5533H14.9833V9.81055Z" fill="#002469"/>
<path d="M19.1348 9.81055H16.0237V12.5533H19.1348V9.81055Z" fill="#002469"/>
<path d="M6.67614 12.4717H3.56567V15.2124H6.67614V12.4717Z" fill="#002469"/>
<path d="M10.8289 13.4717H7.71777V16.2124H10.8289V13.4717Z" fill="#002469"/>
<path d="M14.9833 13.4717H11.8728V16.2124H14.9833V13.4717Z" fill="#002469"/>
<path d="M19.1348 13.4717H16.0237V16.2124H19.1348V13.4717Z" fill="#002469"/>
<path d="M6.67614 16.1313H3.56567V18.8721H6.67614V16.1313Z" fill="#002469"/>
<path d="M10.8289 17.1313H7.71777V19.8721H10.8289V17.1313Z" fill="#002469"/>
<path d="M14.9833 17.1313H11.8728V19.8721H14.9833V17.1313Z" fill="#002469"/>
<path d="M19.1348 17.1313H16.0237V19.8721H19.1348V17.1313Z" fill="#002469"/>
<path d="M20.6578 21.5972C20.6578 22.2445 20.1264 22.7711 19.4732 22.7711H3.22702C2.57379 22.7711 2.04241 22.2445 2.04241 21.5972V8.1156H0.350098V21.5972C0.350098 23.1688 1.64099 24.448 3.22702 24.448H19.4732C21.0599 24.448 22.3501 23.1688 22.3501 21.5972V8.1156H20.6578V21.5972Z" fill="#002469"/>
<path d="M19.4732 2.64817H18.7299V1.8446C18.7299 0.82705 17.9196 0 16.9225 0C15.9247 0 15.1151 0.82705 15.1151 1.8446V2.6475H13.2604V1.8446C13.2604 0.82705 12.4501 0 11.453 0C10.4559 0 9.64561 0.82705 9.64561 1.8446V2.6475H7.79084V1.8446C7.79084 0.82705 6.98056 0 5.98345 0C4.98634 0 4.17607 0.82705 4.17607 1.8446V2.6475H3.22702C1.64099 2.6475 0.350098 3.92664 0.350098 5.49824V6.83976H2.04241H20.6578H22.3501V5.49824C22.3501 3.92731 21.0599 2.64817 19.4732 2.64817ZM6.77545 5.12865C6.77545 5.5908 6.42007 5.9671 5.98345 5.9671C5.54684 5.9671 5.19145 5.5908 5.19145 5.12865V1.8446C5.19145 1.38244 5.54684 1.00614 5.98345 1.00614C6.42007 1.00614 6.77545 1.38244 6.77545 1.8446V5.12865ZM12.245 5.12865C12.245 5.5908 11.8896 5.9671 11.453 5.9671C11.0164 5.9671 10.661 5.5908 10.661 5.12865V1.8446C10.661 1.38244 11.0164 1.00614 11.453 1.00614C11.8896 1.00614 12.245 1.38244 12.245 1.8446V5.12865ZM17.7145 5.12865C17.7145 5.5908 17.3591 5.9671 16.9225 5.9671C16.4852 5.9671 16.1305 5.5908 16.1305 5.12865V1.8446C16.1305 1.38244 16.4852 1.00614 16.9225 1.00614C17.3591 1.00614 17.7145 1.38244 17.7145 1.8446V5.12865Z" fill="#002469"/>
</svg>
