<svg width="97" height="60" viewBox="0 0 97 60" fill="none" xmlns="http://www.w3.org/2000/svg">
<path d="M89.8553 0.975098C85.9155 0.975098 82.7103 4.18035 82.7103 8.12008C82.7103 9.33237 83.0148 10.4743 83.5494 11.4756L65.2785 30.8212C64.3683 30.4002 63.3556 30.1632 62.2885 30.1632C60.3866 30.1632 58.6575 30.9115 57.3762 32.1272L41.7726 23.8665C41.8336 23.4909 41.8668 23.1063 41.8668 22.714C41.8668 18.7742 38.6616 15.569 34.7218 15.569C30.7821 15.569 27.5768 18.7742 27.5768 22.714C27.5768 23.8158 27.8279 24.8604 28.2752 25.7931L10.4238 43.1198C9.4435 42.6133 8.33287 42.3251 7.15536 42.3251C3.21562 42.3251 0.010376 45.5303 0.010376 49.47C0.010376 53.4098 3.21562 56.615 7.15536 56.615C11.0951 56.615 14.3003 53.4098 14.3003 49.47C14.3003 48.3682 14.0492 47.3237 13.602 46.3909L31.4534 29.0642C32.4337 29.5707 33.5446 29.859 34.7218 29.859C36.6237 29.859 38.3528 29.1107 39.6341 27.8949L55.2378 36.1556C55.1767 36.5312 55.1436 36.9158 55.1436 37.3081C55.1436 41.2479 58.3488 44.4531 62.2885 44.4531C66.2283 44.4531 69.4335 41.2479 69.4335 37.3081C69.4335 36.0959 69.1291 34.9537 68.5942 33.9527L86.865 14.607C87.7752 15.028 88.7879 15.2651 89.855 15.2651C93.7947 15.2651 97 12.0598 97 8.12008C97 4.18035 93.7953 0.975098 89.8553 0.975098ZM7.15536 52.0544C5.73018 52.0544 4.57099 50.8952 4.57099 49.47C4.57099 48.0449 5.73018 46.8857 7.15536 46.8857C8.58053 46.8857 9.73973 48.0449 9.73973 49.47C9.73973 50.8952 8.58027 52.0544 7.15536 52.0544ZM34.7221 25.2986C33.2969 25.2986 32.1377 24.1394 32.1377 22.7142C32.1377 21.2891 33.2966 20.1299 34.7221 20.1299C36.1473 20.1299 37.3065 21.2891 37.3065 22.7142C37.3065 24.1392 36.1473 25.2986 34.7221 25.2986ZM62.2885 39.8928C60.8634 39.8928 59.7042 38.7336 59.7042 37.3084C59.7042 35.8832 60.8634 34.724 62.2885 34.724C63.7137 34.724 64.8729 35.8832 64.8729 37.3084C64.8729 38.7333 63.7137 39.8928 62.2885 39.8928ZM89.8553 10.7045C88.4301 10.7045 87.2709 9.54525 87.2709 8.12008C87.2709 6.69491 88.4301 5.53571 89.8553 5.53571C91.2804 5.53571 92.4396 6.69491 92.4396 8.12008C92.4396 9.54525 91.2804 10.7045 89.8553 10.7045Z" fill="#22337D"/>
<path d="M62.2885 49.6221C61.0293 49.6221 60.0081 50.643 60.0081 51.9025V56.7673C60.0081 58.0266 61.029 59.0477 62.2885 59.0477C63.5481 59.0477 64.569 58.0269 64.569 56.7673V51.9025C64.569 50.643 63.5478 49.6221 62.2885 49.6221Z" fill="#22337D"/>
<path d="M34.7221 35.0278C33.4628 35.0278 32.4416 36.0487 32.4416 37.3083V56.7672C32.4416 58.0265 33.4625 59.0477 34.7221 59.0477C35.9813 59.0477 37.0025 58.0268 37.0025 56.7672V37.3083C37.0025 36.0487 35.9813 35.0278 34.7221 35.0278Z" fill="#22337D"/>
<path d="M89.8553 20.4336C88.596 20.4336 87.5748 21.4545 87.5748 22.714V56.7669C87.5748 58.0262 88.5957 59.0473 89.8553 59.0473C91.1145 59.0473 92.1357 58.0264 92.1357 56.7669V22.714C92.1357 21.4548 91.1148 20.4336 89.8553 20.4336Z" fill="#22337D"/>
<path d="M59 8.30432V25.6957C59 26.4163 59.8956 27 61 27C62.1044 27 63 26.4163 63 25.6957V8.30432C63 7.58375 62.1044 7 61 7C59.8956 7 59 7.58375 59 8.30432Z" fill="#22337D"/>
</svg>
