<svg width="23" height="20" viewBox="0 0 23 20" fill="none" xmlns="http://www.w3.org/2000/svg">
<rect width="23" height="20" rx="2" fill="#002469"/>
<path d="M6.69876 3.6607L5.99609 2.95154L6.62006 2.33337L7.32272 3.04254L6.69876 3.6607ZM8.02257 3.74748L7.39896 4.36617L8.24075 5.21499L8.86453 4.59647L8.02257 3.74748ZM17.4184 7.27185V8.92135L13.9302 4.38567L11.4907 7.24533L9.37818 5.11504L8.75439 5.73338L11.539 8.54191L13.8949 5.78046L16.6853 9.409L15.3923 8.91801L15.0805 9.73907L18.2972 10.9605V7.27185H17.4184ZM14.9285 10.714H13.7842C13.5903 10.714 13.4329 10.8714 13.4329 11.0653V17.3306C13.4329 17.5246 13.5903 17.682 13.7842 17.682H14.9287C15.1226 17.682 15.28 17.5246 15.28 17.3306V11.0653C15.2798 10.8714 15.1226 10.714 14.9285 10.714ZM11.1814 12.4707H10.0373C9.84334 12.4707 9.68595 12.6281 9.68595 12.822V17.3306C9.68595 17.5246 9.84334 17.682 10.0373 17.682H11.1814C11.3755 17.682 11.5327 17.5246 11.5327 17.3306V12.822C11.5327 12.6281 11.3755 12.4707 11.1814 12.4707ZM7.49206 7.25921H6.34795C6.15402 7.25921 5.99662 7.4166 5.99662 7.61054V17.3306C5.99662 17.5246 6.15402 17.682 6.34795 17.682H7.49206C7.68617 17.682 7.84339 17.5246 7.84339 17.3306V7.61054C7.84339 7.4166 7.68617 7.25921 7.49206 7.25921Z" fill="white"/>
</svg>
