<svg width="23" height="20" viewBox="0 0 23 20" fill="none" xmlns="http://www.w3.org/2000/svg">
<rect width="23" height="20" rx="2" fill="#002469"/>
<path d="M6 4.00169V4.56449V7.65542V8.21823V11.3086V11.8714V15.5251H9.65373H10.2165H13.3075H13.8703H17.524V11.8714V11.3086V8.21823V7.65542V4.56449V4.00169V4H6V4.00169ZM13.8697 4.56449H16.9606V7.65542H13.8697V4.56449ZM13.8697 8.21766H16.9606V11.308H13.8697V8.21766ZM13.8697 11.8714H16.9606V14.9623H13.8697V11.8714ZM10.2154 4.56449H13.3058V7.65542H10.2154V4.56449ZM10.2154 8.21766H13.3058V11.308H10.2154V8.21766ZM10.2154 11.8714H13.3058V14.9623H10.2154V11.8714ZM6.56281 4.56449H9.65373V7.65542H6.56281V4.56449ZM6.56281 8.21766H9.65373V11.308H6.56281V8.21766ZM6.56281 11.8714H9.65373V14.9623H6.56281V11.8714Z" fill="white"/>
</svg>
