<svg width="5" height="5" viewBox="0 0 5 5" fill="none" xmlns="http://www.w3.org/2000/svg">
<path d="M1.84532 4.2428H4.41411V0.586184H1.84522C1.78828 0.586184 1.74206 0.53997 1.74206 0.483028V0.103156C1.74206 0.0462139 1.78828 0 1.84522 0H4.89709C4.95403 0 5.00024 0.0462139 5.00024 0.103156V4.72573C5.00024 4.78267 4.95403 4.82888 4.89709 4.82888H1.84532C1.78833 4.82888 1.74217 4.78267 1.74217 4.72573V4.34596C1.74217 4.28891 1.78828 4.2428 1.84532 4.2428Z" fill="#1A3C7A"/>
<path d="M0.0304914 2.34128L1.41907 0.952799C1.45776 0.914064 1.52625 0.914116 1.56494 0.952799L1.89437 1.28228C1.93465 1.32256 1.93465 1.38786 1.89437 1.42814L1.26718 2.05543H3.98229C4.03924 2.05543 4.08545 2.10165 4.08545 2.15859V2.66983C4.08545 2.72677 4.03924 2.77299 3.98229 2.77299H1.26702L1.89421 3.40028C1.93449 3.44056 1.93449 3.50586 1.89421 3.54614L1.56478 3.87567C1.54544 3.89501 1.51913 3.9059 1.49185 3.9059C1.46446 3.9059 1.43826 3.89501 1.41892 3.87567L0.0303364 2.48719C0.0109949 2.46785 0.000112057 2.44155 0.000112057 2.41426C0.000163555 2.38682 0.0111494 2.36062 0.0304914 2.34128Z" fill="#1A3C7A"/>
</svg>
