<svg width="6" height="6" viewBox="0 0 6 6" fill="none" xmlns="http://www.w3.org/2000/svg">
<path d="M6 1.41556V4.58444H0V1.41556H6ZM4.12706 3.29753C4.08646 3.34434 4.05387 3.38236 4.03008 3.41081L4.29128 3.58305L4.51991 3.2052C4.5887 3.32908 4.66888 3.45891 4.75862 3.59805L5.01646 3.39814C4.93345 3.30632 4.84836 3.21944 4.75862 3.13435C4.72344 3.10098 4.70068 3.07822 4.69215 3.0702C4.72008 3.06477 4.8018 3.0464 4.9368 3.01279C5.03405 2.98796 5.09818 2.97166 5.12896 2.95951L5.02473 2.65848C4.87551 2.719 4.74309 2.78701 4.62775 2.8589C4.65439 2.67218 4.66836 2.52011 4.66836 2.40269H4.36785C4.36785 2.48571 4.38336 2.63856 4.41389 2.86071C4.39061 2.85166 4.3425 2.82994 4.26724 2.79424C4.16509 2.74769 4.07044 2.70812 3.98379 2.67527L3.89302 2.98588C4.01948 3.01382 4.16613 3.042 4.33267 3.06941L4.12706 3.29753ZM2.61621 3.29831C2.57483 3.3446 2.5425 3.38236 2.51871 3.41159L2.77991 3.58383L3.00879 3.20573C3.07836 3.32961 3.15879 3.45892 3.24801 3.59831L3.50483 3.39892C3.42233 3.30685 3.33699 3.21995 3.2475 3.13486C3.21258 3.1015 3.18956 3.07926 3.18078 3.0702C3.20923 3.06504 3.29069 3.04642 3.42543 3.01279C3.52319 2.98822 3.58707 2.97166 3.61733 2.95951L3.51363 2.65899C3.36441 2.71977 3.23225 2.78753 3.11664 2.85942C3.1438 2.67295 3.15673 2.52088 3.15673 2.40347H2.85673C2.85673 2.48624 2.87199 2.63908 2.9025 2.86149C2.88 2.85218 2.83112 2.83046 2.75586 2.79502C2.65345 2.74847 2.55905 2.70864 2.47267 2.67554L2.38215 2.9864C2.50836 3.01433 2.65551 3.04252 2.82103 3.06993L2.61621 3.29831ZM1.10482 3.29831C1.06448 3.3446 1.03163 3.38236 1.00784 3.41159L1.26904 3.58383L1.4974 3.20573C1.56723 3.32961 1.64637 3.45892 1.73689 3.59831L1.99396 3.39892C1.91224 3.30685 1.82688 3.21995 1.73689 3.13486C1.70146 3.10202 1.67818 3.07926 1.66966 3.07072C1.69784 3.06529 1.78034 3.04692 1.91458 3.01305C2.01156 2.98822 2.0757 2.97167 2.10595 2.95952L2.00199 2.65874C1.85302 2.71951 1.72061 2.78701 1.60552 2.85917C1.63242 2.67269 1.64535 2.52063 1.64535 2.40322H1.34535C1.34535 2.48598 1.36138 2.63882 1.39191 2.86124C1.36864 2.85192 1.32079 2.82995 1.24553 2.79477C1.14312 2.74822 1.04846 2.70839 0.962078 2.67528L0.871042 2.98615C0.996727 3.01382 1.14492 3.04227 1.31044 3.06942L1.10482 3.29831Z" fill="#1A3C7A"/>
</svg>
