<svg width="79" height="46" viewBox="0 0 79 46" fill="none" xmlns="http://www.w3.org/2000/svg">
<path d="M8.37959 7.37387L11.7314 4.02205L15.0832 7.37387V18.4346C15.0832 19.4402 15.7535 20.1105 16.759 20.1105C17.7646 20.1105 18.4348 19.4402 18.4348 18.4346V10.7257L20.6134 12.9043C20.9487 13.2395 21.2837 13.407 21.7865 13.407C22.2892 13.407 22.6245 13.2395 22.9595 12.9043C23.6298 12.234 23.6298 11.2284 22.9595 10.558L18.2186 5.81707C18.0833 5.57374 17.8885 5.37873 17.6452 5.24361L12.9043 0.502714C12.234 -0.167571 11.2284 -0.167571 10.558 0.502714L5.81707 5.24361C5.57374 5.37892 5.37892 5.57374 5.24361 5.81707L0.502714 10.558C-0.167571 11.2283 -0.167571 12.2338 0.502714 12.9043C1.173 13.5745 2.17852 13.5745 2.849 12.9043L5.02758 10.7257V18.4346C5.02758 19.4402 5.69786 20.1105 6.70339 20.1105C7.70891 20.1105 8.3792 19.4402 8.3792 18.4346V7.37387H8.37959Z" fill="#22337D"/>
<path d="M38.5454 26.814V41.8969H35.1936V18.4346C35.1936 17.4291 34.5233 16.7588 33.5178 16.7588H26.8144C25.8089 16.7588 25.1386 17.4291 25.1386 18.4346V41.8969H21.7868V26.814C21.7868 25.8085 21.1165 25.1382 20.1109 25.1382H13.4073C12.4018 25.1382 11.7315 25.8085 11.7315 26.814V41.8969H10.0557C9.05017 41.8969 8.37988 42.5672 8.37988 43.5727C8.37988 44.5783 9.05017 45.2485 10.0557 45.2485H13.4073H20.1108H26.8142H33.5178H40.2213H46.9247H53.6283H60.3318H67.0352H73.7388H77.0907C78.0962 45.2485 78.7665 44.5783 78.7665 43.5727C78.7665 42.5672 78.0962 41.8969 77.0907 41.8969H75.4148V26.814C75.4148 25.8085 74.7446 25.1382 73.739 25.1382H67.0356C66.0301 25.1382 65.3598 25.8085 65.3598 26.814V41.8969H62.008V18.4346C62.008 17.4291 61.3377 16.7588 60.3322 16.7588H53.6283C52.6228 16.7588 51.9525 17.4291 51.9525 18.4346V41.8969H48.6007V26.814C48.6007 25.8085 47.9304 25.1382 46.9249 25.1382H40.2215C39.2157 25.1382 38.5454 25.8085 38.5454 26.814ZM15.0831 41.8969V28.4899H18.4349V41.8969H15.0831ZM28.4902 41.8969V20.1106H31.842V41.8969H28.4902ZM68.7112 28.4899H72.063V41.8969H68.7112V28.4899ZM55.3041 20.1106H58.656V41.8969H55.3041V20.1106ZM41.8973 28.4899H45.2491V41.8969H41.8973V28.4899Z" fill="#22337D"/>
</svg>
