<svg width="72" height="69" viewBox="0 0 72 69" fill="none" xmlns="http://www.w3.org/2000/svg">
<path d="M41.2623 19.469H30.7377C30.0809 19.469 29.5483 20.0014 29.5483 20.6584V62.7527C29.5483 63.4095 30.0809 63.9419 30.7377 63.9419H41.2623C41.9191 63.9419 42.4517 63.4095 42.4517 62.7525V20.6584C42.4517 20.0014 41.9191 19.469 41.2623 19.469ZM40.0729 61.5633H31.9272V21.8478H40.0729V61.5633Z" fill="#22337D"/>
<path d="M22.0875 32.6199H11.5627C10.9058 32.6199 10.3733 33.1523 10.3733 33.8093V41.1712C10.3733 41.8282 10.9058 42.3606 11.5627 42.3606C12.2196 42.3606 12.7521 41.8282 12.7521 41.1712V34.9987H20.8979V61.5634H12.7522V45.9547C12.7522 45.2977 12.2197 44.7653 11.5628 44.7653C10.906 44.7653 10.3734 45.2977 10.3734 45.9547V62.7529C10.3734 63.4098 10.906 63.9422 11.5628 63.9422H22.0875C22.7444 63.9422 23.2769 63.4098 23.2769 62.7528V33.8093C23.2769 33.1523 22.7444 32.6199 22.0875 32.6199Z" fill="#22337D"/>
<path d="M70.8106 66.1622H1.18941C0.532547 66.1622 0 66.6946 0 67.3516C0 68.0086 0.532547 68.541 1.18941 68.541H70.8106C71.4675 68.541 72 68.0086 72 67.3516C72 66.6946 71.4675 66.1622 70.8106 66.1622Z" fill="#22337D"/>
<path d="M66.1359 10.4768L56.0073 0.348258C55.5428 -0.116086 54.7896 -0.116086 54.3253 0.348258L44.1966 10.4768C43.8564 10.8171 43.7546 11.3285 43.9387 11.7731C44.1228 12.2176 44.5565 12.5073 45.0375 12.5073H48.7145V26.1181C48.7145 26.7751 49.247 27.3075 49.9039 27.3075C50.5607 27.3075 51.0933 26.7751 51.0933 26.1181V11.318C51.0933 10.661 50.5607 10.1286 49.9039 10.1286H47.9091L55.1662 2.87149L62.4233 10.1286H60.4285C59.7717 10.1286 59.2391 10.661 59.2391 11.318V61.563H51.0934V30.903C51.0934 30.246 50.5609 29.7136 49.904 29.7136C49.2471 29.7136 48.7146 30.246 48.7146 30.903V62.7526C48.7146 63.4096 49.2471 63.942 49.904 63.942H60.4285C61.0854 63.942 61.6179 63.4096 61.6179 62.7526V12.5074H65.2948C65.7761 12.5074 66.2096 12.2177 66.3937 11.7732C66.5778 11.3287 66.4761 10.8172 66.1359 10.4768Z" fill="#22337D"/>
</svg>
