<svg width="92" height="96" viewBox="0 0 92 96" fill="none" xmlns="http://www.w3.org/2000/svg">
<g clip-path="url(#clip0_62_222)">
<path d="M54.1328 29.254L54.0009 77.4314L45.0334 82.6854L45.1521 34.5213L54.1328 29.254Z" fill="#3F2A8A"/>
<path d="M45.1521 34.5213L45.0334 82.6854L36 77.4314L36.1318 29.254L45.1521 34.5213Z" fill="#4E33AD"/>
<path d="M54.1328 29.254L45.1521 34.5213L36.1318 29.254L45.0994 24L54.1328 29.254Z" fill="#6F51DB"/>
<path d="M65.5664 47.7561L65.4345 84.082L56.467 89.3493L56.5989 53.0102L65.5664 47.7561Z" fill="#FFC400"/>
<path d="M56.5989 53.0102L56.467 89.3493L47.4336 84.082L47.5654 47.7561L56.5989 53.0102Z" fill="#FF9900"/>
<path d="M65.5664 47.7561L56.5989 53.0102L47.5654 47.7561L56.533 42.5021L65.5664 47.7561Z" fill="#FFDE38"/>
<path d="M77 75.9948L76.8681 90.746L67.9006 96L68.0325 81.2621L77 75.9948Z" fill="#F5425C"/>
<path d="M68.0325 81.2621L67.9006 96L58.8671 90.746L58.999 75.9948L68.0325 81.2621Z" fill="#C72941"/>
<path d="M77 75.9948L68.0325 81.2621L58.999 75.9948L67.9665 70.7408L77 75.9948Z" fill="#FF687F"/>
</g>
<path opacity="0.4" d="M16.24 42.45C22.3096 42.45 27.23 39.607 27.23 36.1C27.23 32.593 22.3096 29.75 16.24 29.75C10.1704 29.75 5.25 32.593 5.25 36.1C5.25 39.607 10.1704 42.45 16.24 42.45Z" fill="#EDECF8"/>
<path d="M22.6399 30.16C26.6399 32.48 26.6599 36.23 22.6899 38.55C18.7199 40.87 12.2599 40.87 8.2599 38.55C4.2599 36.23 4.2399 32.48 8.2099 30.16C12.1799 27.84 18.6399 27.84 22.6399 30.16Z" fill="#6F51DB"/>
<path d="M20.98 2.96C17.9 1.18 12.92 1.18 9.84003 2.96C6.76003 4.74 6.76003 7.63 9.84003 9.42C12.92 11.2 17.9 11.2 20.98 9.42C24.06 7.63 24.06 4.74 20.98 2.96Z" fill="#EDECF8"/>
<path d="M20.26 24.17C19.63 23.63 17.32 21.66 17.27 20.28C17.31 18.9 19.62 16.93 20.26 16.39C21.65 15.2 23.55 13.43 24.09 11.59C24.79 9.18999 24.13 6.58999 22.81 4.59999H8.01C6.69 6.58999 6.03 9.18999 6.73 11.59C7.27 13.43 8.78 15.2 10.17 16.39C10.8 16.93 13.4 18.9 13.52 20.28C13.4 21.66 10.8 23.63 10.17 24.17C8.78 25.36 7.27 27.13 6.73 28.97C6.01 31.42 6.72 34.08 8.1 36.09C8.48 36.64 9.06 37.16 9.84 37.61C12.92 39.39 17.9 39.39 20.98 37.61C21.75 37.16 22.33 36.64 22.72 36.09C24.09 34.08 24.8 31.42 24.09 28.97C23.55 27.13 21.65 25.37 20.26 24.17Z" fill="#EDECF8"/>
<path opacity="0.5" d="M20.2599 24.17C19.6299 23.63 17.3199 21.66 17.2699 20.28C17.3099 18.9 19.6199 16.93 20.2599 16.39C21.6499 15.2 23.5499 13.43 24.0899 11.59C24.7899 9.18999 24.1299 6.58999 22.8099 4.59999H20.8899C20.6499 7.32999 19.0199 9.76999 17.6199 12.14C14.6299 17.12 15.4299 22.8 19.4099 27.29C21.5999 29.88 21.6299 35.17 18.0099 36.56C9.1399 39.98 6.8299 31.22 6.5099 30.03C6.2299 32.17 6.9199 34.37 8.0999 36.1C8.4799 36.65 9.0599 37.17 9.8399 37.62C12.9199 39.4 17.8999 39.4 20.9799 37.62C21.7499 37.17 22.3299 36.65 22.7199 36.1C24.0899 34.09 24.7999 31.43 24.0899 28.98C23.5499 27.13 21.6499 25.37 20.2599 24.17Z" fill="#EDECF8"/>
<path d="M22.7101 12.61C22.7101 12.7 22.7101 12.78 22.6901 12.87C22.6801 12.99 22.6501 13.11 22.6201 13.22C22.6001 13.3 22.5701 13.38 22.5401 13.46C22.4801 13.54 22.0701 14.23 22.0101 14.31C21.4001 15.06 20.9101 15.26 20.3401 15.78C19.5801 16.48 19.1901 16.72 18.5201 17.5C18.4601 17.57 18.4001 17.64 18.3401 17.71C17.0401 19.24 16.1201 20.93 15.4601 22.82C14.6801 20.17 12.8801 17.99 10.7801 16.25C10.6601 16.15 10.5701 16.07 10.5001 16.01C10.1301 15.69 9.51011 15.12 8.89011 14.38C8.79011 14.26 8.69011 14.14 8.59011 14.01L8.58011 14C8.40011 13.74 8.27011 13.48 8.20011 13.21C8.17011 13.09 8.14011 12.98 8.13011 12.86C8.12011 12.77 8.11011 12.69 8.11011 12.6C8.11011 11.58 8.83011 10.59 10.1501 9.82999C11.5501 9.01999 13.4201 8.56999 15.4101 8.56999C17.4101 8.56999 19.2801 9.01999 20.6701 9.82999C21.9901 10.6 22.7101 11.58 22.7101 12.61Z" fill="#FFC400"/>
<path d="M22.8 34.46C22.8 34.43 22.8 34.41 22.8 34.38C22.8 34.1 22.74 33.82 22.64 33.55C22.6 33.41 22.56 33.26 22.5 33.11C22.17 32.24 21.61 31.46 20.97 30.8C19.99 29.78 18.81 28.98 17.77 28.02C17.35 27.64 16.96 27.24 16.61 26.79C16.36 26.47 16.11 25.93 15.78 25.69C14.66 26.88 13.32 27.84 12.07 28.89C10.59 30.14 9.14002 30.9 8.20002 33.48V33.49C8.08002 33.78 8.02002 34.07 8.02002 34.37C8.02002 35.41 8.75002 36.4 10.08 37.18C11.5 38 13.39 38.45 15.41 38.45C17.43 38.45 19.32 38 20.74 37.18C22.03 36.43 22.75 35.48 22.8 34.47C22.8 34.48 22.8 34.48 22.8 34.46Z" fill="#FFC400"/>
<path d="M16.57 34.74C18.14 32.57 18.16 29.83 17.16 27.43C16.97 27.23 16.78 27.02 16.61 26.8C16.36 26.48 16.11 25.94 15.78 25.7C14.66 26.89 13.32 27.85 12.07 28.9C10.59 30.15 9.14002 30.91 8.20002 33.49V33.5C8.08002 33.79 8.02002 34.08 8.02002 34.38C8.02002 35.42 8.75002 36.41 10.08 37.19C10.25 37.29 10.42 37.38 10.6 37.46C12.85 37.54 15.04 36.75 16.57 34.74Z" fill="#FFC400"/>
<path d="M22.8001 34.38C22.8001 34.1 22.7401 33.82 22.6401 33.55C22.6001 33.41 22.5601 33.26 22.5001 33.11C22.1701 32.24 21.6101 31.46 20.9701 30.8C19.9901 29.78 18.8101 28.98 17.7701 28.02C17.5601 27.83 17.3601 27.63 17.1601 27.42C18.1501 29.81 18.1301 32.56 16.5701 34.73C15.0401 36.75 12.8501 37.53 10.6001 37.46C11.9401 38.11 13.6301 38.46 15.4101 38.46C17.4301 38.46 19.3201 38.01 20.7401 37.19C22.0301 36.44 22.7501 35.49 22.8001 34.48C22.8001 34.48 22.8001 34.47 22.8001 34.46C22.8001 34.44 22.8001 34.41 22.8001 34.38Z" fill="#FF9900"/>
<path d="M22.7201 12.61C22.7201 12.7 22.7201 12.78 22.7001 12.87C22.6901 12.99 22.6601 13.11 22.6301 13.22C22.6101 13.3 22.5801 13.38 22.5501 13.46C22.2701 14.16 21.6501 14.81 20.7401 15.35C20.7201 15.36 20.7001 15.37 20.6801 15.38C19.2801 16.19 17.4101 16.64 15.4201 16.64C13.4201 16.64 11.5501 16.19 10.1601 15.38C9.89012 15.22 9.64012 15.05 9.42012 14.88C9.22012 14.73 9.05012 14.56 8.90012 14.4C8.79012 14.28 8.69012 14.16 8.60012 14.03C8.60012 14.03 8.60012 14.02 8.59012 14.02C8.41012 13.76 8.28012 13.5 8.21012 13.23C8.18012 13.11 8.15012 13 8.14012 12.88C8.13012 12.79 8.12012 12.71 8.12012 12.62C8.12012 11.6 8.84012 10.61 10.1601 9.85C11.5601 9.04 13.4301 8.59 15.4201 8.59C17.2401 8.59 18.9601 8.96 20.3001 9.64C20.4301 9.71 20.5601 9.77 20.6801 9.85C21.9901 10.6 22.7201 11.58 22.7201 12.61Z" fill="#FFC400"/>
<path d="M21.5901 11.9C21.5901 11.99 21.5901 12.07 21.5701 12.16C21.5601 12.28 21.5301 12.4 21.5001 12.51C21.4801 12.59 21.4501 12.67 21.4201 12.75C21.1401 13.45 20.5201 14.1 19.6101 14.64C19.5901 14.65 19.5701 14.66 19.5501 14.67C18.1501 15.48 16.2801 15.93 14.2901 15.93C12.4701 15.93 10.7601 15.56 9.41011 14.88C9.21011 14.73 9.04011 14.56 8.89011 14.4C8.78011 14.28 8.68011 14.15 8.59011 14.03C8.59011 14.03 8.59011 14.02 8.58011 14.02C8.40011 13.76 8.27011 13.5 8.20011 13.23C8.17011 13.11 8.14011 13 8.13011 12.88C8.12011 12.79 8.11011 12.71 8.11011 12.62C8.11011 11.6 8.83011 10.61 10.1501 9.85C11.5501 9.04 13.4201 8.59 15.4101 8.59C17.2301 8.59 18.9501 8.96 20.2901 9.64C21.1401 10.3 21.5901 11.08 21.5901 11.9Z" fill="#FFD438"/>
<path d="M13.52 27.72C13.94 27.95 16.4 27.02 16.87 27.1C16.46 26.58 16.19 26.07 16.04 25.57C15.77 24.64 15.76 23.64 15.91 22.68C16.07 21.72 16.38 20.8 16.74 19.89C16.8 19.74 16.86 19.56 16.75 19.43C16.68 19.35 16.57 19.32 16.47 19.31C16.15 19.26 15.83 19.22 15.52 19.28C15 19.38 14.6 19.73 14.57 20.27C14.55 20.71 14.76 21.03 14.92 21.42C15.33 22.47 15.51 23.61 15.44 24.73C15.4 25.37 14.99 26.4 13.52 27.72Z" fill="#FFC400"/>
<path d="M25.98 6.12999V7.39999C25.98 8.94999 24.96 10.5 22.93 11.68C18.85 14.06 12.21 14.06 8.1 11.68C6.03 10.48 5 8.90999 5 7.33999V6.06999C5 7.63999 6.03 9.20999 8.1 10.41C12.21 12.79 18.85 12.79 22.93 10.41C24.96 9.22999 25.98 7.67999 25.98 6.12999Z" fill="#3F2A8A"/>
<path d="M25.9801 6.23V7.5C25.9501 8.52 25.4801 9.54 24.5701 10.45V9.18C25.4801 8.26 25.9501 7.25 25.9801 6.23Z" fill="#3F2A8A"/>
<path d="M24.5701 9.17V10.44C24.1301 10.88 23.5801 11.3 22.9401 11.67C21.8801 12.29 20.6501 12.75 19.3301 13.04V11.77C20.6501 11.47 21.8801 11.02 22.9401 10.4C23.5801 10.03 24.1301 9.61 24.5701 9.17Z" fill="#3F2A8A"/>
<path d="M19.3299 11.78V13.05C17.6899 13.42 15.9199 13.54 14.1899 13.41V12.14C15.9199 12.27 17.6899 12.15 19.3299 11.78Z" fill="#3F2A8A"/>
<path d="M14.19 12.14V13.41C11.97 13.25 9.81 12.67 8.1 11.67C6.03 10.48 5 8.90999 5 7.33999V6.06999C5 7.63999 6.03 9.20999 8.1 10.41C9.81 11.4 11.97 11.98 14.19 12.14Z" fill="#3F2A8A"/>
<path d="M22.93 10.41C19.82 12.22 15.23 12.66 11.41 11.71C10.21 11.41 9.07997 10.98 8.09997 10.41C3.98997 8.02999 3.96997 4.16999 8.04997 1.78999C11.24 -0.0700077 15.99 -0.480008 19.88 0.569992H19.89C20.97 0.859992 21.99 1.26999 22.88 1.78999C27 4.16999 27.02 8.02999 22.93 10.41Z" fill="#6F51DB"/>
<path d="M25.65 34.48V35.75C25.62 36.74 25.16 37.73 24.28 38.62V37.35C25.16 36.46 25.62 35.47 25.65 34.48Z" fill="#3F2A8A"/>
<path d="M24.2799 37.35V38.62C23.8499 39.05 23.3199 39.45 22.6899 39.82C21.6599 40.42 20.4599 40.87 19.1799 41.16V39.89C20.4599 39.6 21.6599 39.16 22.6899 38.55C23.3199 38.18 23.8499 37.78 24.2799 37.35Z" fill="#3F2A8A"/>
<path d="M19.1799 39.89V41.16C17.5799 41.52 15.8599 41.64 14.1799 41.51V40.24C15.8599 40.36 17.5799 40.25 19.1799 39.89Z" fill="#3F2A8A"/>
<path d="M14.1801 40.24V41.51C12.0201 41.35 9.92006 40.79 8.25006 39.82C6.24006 38.65 5.23006 37.12 5.24006 35.6V34.33C5.24006 35.86 6.24006 37.39 8.25006 38.55C9.92006 39.52 12.0101 40.08 14.1801 40.24Z" fill="#3F2A8A"/>
<path opacity="0.4" d="M7.75005 29.23C7.60005 29.73 7.51005 30.26 7.58005 30.77C7.65005 31.29 7.89005 31.8 8.31005 32.1C8.82005 32.47 9.52005 32.49 10.11 32.27C10.7 32.05 11.19 31.63 11.62 31.17C12.4 30.32 13 29.31 13.38 28.22C13.69 27.32 13.84 26.2 13.11 25.45C12.6 24.93 11.77 24.63 11.07 24.89C9.48005 25.48 8.20005 27.71 7.75005 29.23Z" fill="white"/>
<path d="M36.5756 0L36 1.12085L37.6275 15.5102L38.2031 14.3994L36.5756 0Z" fill="#3F2A8A"/>
<path d="M69.7409 52.9325L75.4272 49.9032L70.8425 28.4252L65.1561 31.4647L69.7409 52.9325Z" fill="#6F51DB"/>
<path d="M65.1562 31.4647L70.8425 28.4252L56.4729 23.2249L50.7965 26.2542L65.1562 31.4647Z" fill="#4E33AD"/>
<path d="M86.3236 62.2427L92 59.0518L75.4273 49.9032L69.7409 52.9325L86.3236 62.2427Z" fill="#4E33AD"/>
<path d="M37.6274 15.5102L38.203 14.3994L50.965 6.96747L50.3894 8.08832L42.3908 12.7333L50.7963 26.2542L65.156 31.4647L69.7408 52.9325L86.3235 62.2427L86.3036 63L69.3538 53.4677L64.769 31.9998L50.5283 26.8702L41.7855 13.0867L37.6274 15.5102Z" fill="#3F2A8A"/>
<path d="M36.5757 0L50.9652 6.96746L47.5911 8.92643L56.4729 23.2249L50.7965 26.2542L42.0338 12.1577L38.2032 14.3994L36.5757 0Z" fill="#4E33AD"/>
<path d="M2.72095 69.828V72.1663C2.73299 74.422 4.24998 76.6894 7.29602 78.4137C13.4001 81.8739 23.3088 81.8739 29.4129 78.4137C32.4589 76.6894 33.9879 74.4338 33.9879 72.1663V69.8043L2.72095 69.828Z" fill="#FF9900"/>
<path d="M18.3605 78.6853C26.9979 78.6853 34 74.7197 34 69.828C34 64.9362 26.9979 60.9706 18.3605 60.9706C9.723 60.9706 2.72095 64.9362 2.72095 69.828C2.72095 74.7197 9.723 78.6853 18.3605 78.6853Z" fill="#FFDE38"/>
<path d="M32.3023 69.828C32.3023 71.5758 30.9779 73.2882 28.57 74.6463C25.8731 76.1698 22.2492 77.0201 18.3604 77.0201C14.4716 77.0201 10.8476 76.1816 8.15075 74.6463C7.8016 74.4456 7.46449 74.2448 7.1635 74.0322C5.38163 72.7922 4.41846 71.3278 4.41846 69.828C4.41846 68.0801 5.74282 66.3677 8.15075 65.0096C10.8476 63.4861 14.4716 62.6358 18.3604 62.6358C22.2492 62.6358 25.8731 63.4743 28.57 65.0096C29.1479 65.3284 29.6536 65.6827 30.0991 66.037C31.5318 67.1944 32.3023 68.5053 32.3023 69.828Z" fill="#FF9900"/>
<path d="M32.3023 69.828C32.3023 71.5758 30.9779 73.2882 28.57 74.6463C25.8731 76.1698 22.2492 77.0201 18.3603 77.0201C14.4715 77.0201 10.8476 76.1816 8.15072 74.6463C7.80156 74.4456 7.46445 74.2448 7.16346 74.0322C5.73074 72.8749 4.96021 71.564 4.96021 70.2413C4.96021 68.4935 6.28457 66.781 8.6925 65.4229C11.3894 63.8995 15.0133 63.0492 18.9021 63.0492C22.7909 63.0492 26.4149 63.8876 29.1118 65.4229C29.4609 65.6237 29.798 65.8363 30.099 66.0488C31.5317 67.1944 32.3023 68.5053 32.3023 69.828Z" fill="#FFC400"/>
<path d="M21.8157 70.1941C21.4305 69.9697 21.0091 69.8634 20.5636 69.8516C20.1182 69.8398 19.5402 69.9343 18.8179 70.1114C18.1075 70.3004 17.4574 70.4421 16.8915 70.5365C16.3257 70.6428 15.7839 70.7019 15.2541 70.7137C14.7364 70.7255 14.2308 70.6783 13.7492 70.572C13.2555 70.4657 12.786 70.2767 12.3165 70.0169C11.5098 69.5563 11.1125 69.0367 11.1125 68.458C11.1125 67.8794 11.4978 67.3243 12.2683 66.7929L10.7393 65.9307L11.883 65.2812L13.4361 66.1551C14.3993 65.7418 15.4106 65.5764 16.4701 65.6355C17.5296 65.6945 18.5289 65.9898 19.456 66.5212L17.3972 67.6904C16.8313 67.3715 16.2775 67.1944 15.7598 67.159C15.2421 67.1353 14.7846 67.2298 14.3873 67.4542C14.002 67.6786 13.8094 67.9148 13.8094 68.151C13.8214 68.399 14.014 68.6352 14.4114 68.8478C14.7725 69.0485 15.1699 69.1548 15.5912 69.1666C16.0247 69.1666 16.6267 69.0839 17.4333 68.8832C18.2279 68.6942 18.9142 68.5525 19.4801 68.458C20.0459 68.3636 20.5877 68.3163 21.0934 68.3163C21.599 68.3163 22.0806 68.3754 22.5381 68.4817C22.9956 68.5879 23.4411 68.7651 23.8745 69.0131C24.6812 69.4737 25.0905 69.9815 25.0905 70.5602C25.0905 71.127 24.6932 71.6939 23.8986 72.249L25.3193 73.052L24.1876 73.6898L22.7789 72.8867C21.6953 73.3827 20.5997 73.6071 19.468 73.5835C18.3483 73.5598 17.2888 73.2646 16.3136 72.7095L18.3724 71.5404C18.9383 71.8592 19.5041 72.0364 20.082 72.0482C20.6479 72.0718 21.1897 71.9301 21.6953 71.6467C22.1167 71.4105 22.3335 71.1625 22.3575 70.8908C22.3696 70.6428 22.201 70.4066 21.8157 70.1941Z" fill="#FFDE38"/>
<path d="M2.72095 63.5334V65.8717C2.73299 68.1274 4.24998 70.3948 7.29602 72.1191C13.4001 75.5793 23.3088 75.5793 29.4129 72.1191C32.4589 70.3948 33.9879 68.1392 33.9879 65.8717V63.5097L2.72095 63.5334Z" fill="#FF9900"/>
<path d="M18.3605 72.4025C26.9979 72.4025 34 68.4369 34 63.5452C34 58.6534 26.9979 54.6878 18.3605 54.6878C9.723 54.6878 2.72095 58.6534 2.72095 63.5452C2.72095 68.4369 9.723 72.4025 18.3605 72.4025Z" fill="#FFDE38"/>
<path d="M32.3023 63.5452C32.3023 65.293 30.9779 67.0054 28.57 68.3635C25.8731 69.887 22.2492 70.7373 18.3604 70.7373C14.4716 70.7373 10.8476 69.8988 8.15075 68.3635C7.8016 68.1628 7.46449 67.962 7.1635 67.7494C5.38163 66.5094 4.41846 65.0332 4.41846 63.5452C4.41846 61.7973 5.74282 60.0849 8.15075 58.7268C10.8476 57.2033 14.4716 56.353 18.3604 56.353C22.2492 56.353 25.8731 57.1915 28.57 58.7268C29.1479 59.0456 29.6536 59.3999 30.0991 59.7542C31.5318 60.8998 32.3023 62.2107 32.3023 63.5452Z" fill="#FF9900"/>
<path d="M32.3023 63.5452C32.3023 65.293 30.9779 67.0054 28.57 68.3635C25.8731 69.887 22.2492 70.7373 18.3603 70.7373C14.4715 70.7373 10.8476 69.8988 8.15072 68.3635C7.80156 68.1628 7.46445 67.962 7.16346 67.7494C5.73074 66.5921 4.96021 65.2812 4.96021 63.9585C4.96021 62.2107 6.28457 60.4982 8.6925 59.1401C11.3894 57.6167 15.0133 56.7664 18.9021 56.7664C22.7909 56.7664 26.4149 57.6049 29.1118 59.1401C29.4609 59.3409 29.798 59.5535 30.099 59.766C31.5317 60.8998 32.3023 62.2107 32.3023 63.5452Z" fill="#FFC400"/>
<path d="M21.8157 63.8995C21.4305 63.6751 21.0091 63.5688 20.5636 63.557C20.1182 63.5452 19.5402 63.6396 18.8179 63.8168C18.1075 64.0057 17.4574 64.1475 16.8915 64.2419C16.3257 64.3482 15.7839 64.4073 15.2541 64.4191C14.7364 64.4309 14.2308 64.3837 13.7492 64.2774C13.2555 64.1711 12.786 63.9821 12.3165 63.7223C11.5098 63.2617 11.1125 62.7421 11.1125 62.1634C11.1125 61.5847 11.4978 61.0297 12.2683 60.4982L10.7393 59.6361L11.883 58.9866L13.4361 59.8605C14.3993 59.4472 15.4106 59.2818 16.4701 59.3409C17.5296 59.3999 18.5289 59.6952 19.456 60.2266L17.3972 61.3958C16.8313 61.0769 16.2775 60.8998 15.7598 60.8643C15.2421 60.8407 14.7846 60.9352 14.3873 61.1596C14.002 61.384 13.8094 61.6202 13.8094 61.8564C13.8214 62.1044 14.014 62.3406 14.4114 62.5531C14.7725 62.7539 15.1699 62.8602 15.5912 62.872C16.0247 62.872 16.6387 62.7893 17.4333 62.5886C18.2279 62.3996 18.9142 62.2579 19.4801 62.1634C20.0459 62.0689 20.5877 62.0217 21.0934 62.0217C21.599 62.0217 22.0806 62.0807 22.5381 62.187C22.9956 62.2933 23.4411 62.4705 23.8745 62.7185C24.6812 63.1791 25.0905 63.6869 25.0905 64.2656C25.0905 64.8324 24.6932 65.3993 23.8986 65.9544L25.3193 66.7574L24.1876 67.3951L22.7789 66.5921C21.6953 67.0881 20.5997 67.3125 19.468 67.2889C18.3483 67.2534 17.2888 66.97 16.3136 66.4149L18.3724 65.2576C18.9383 65.5764 19.5041 65.7536 20.082 65.7654C20.6479 65.789 21.1897 65.6473 21.6953 65.3639C22.1167 65.1277 22.3335 64.8797 22.3575 64.608C22.3696 64.3482 22.201 64.112 21.8157 63.8995Z" fill="#FFDE38"/>
<path d="M0 57.5222V59.8605C0.0120397 62.1162 1.52904 64.3837 4.57507 66.1079C10.6792 69.5681 20.5878 69.5681 26.6919 66.1079C29.738 64.3837 31.267 62.128 31.267 59.8605V57.4986L0 57.5222Z" fill="#FF9900"/>
<path d="M15.6395 66.3795C24.277 66.3795 31.279 62.4139 31.279 57.5222C31.279 52.6304 24.277 48.6649 15.6395 48.6649C7.00205 48.6649 0 52.6304 0 57.5222C0 62.4139 7.00205 66.3795 15.6395 66.3795Z" fill="#FFDE38"/>
<path d="M29.5814 57.5222C29.5814 59.27 28.257 60.9824 25.8491 62.3406C23.1522 63.864 19.5282 64.7143 15.6394 64.7143C11.7506 64.7143 8.12669 63.8758 5.4298 62.3406C5.08065 62.1398 4.74354 61.939 4.44255 61.7265C2.66068 60.4864 1.69751 59.0102 1.69751 57.5222C1.69751 55.7743 3.02187 54.0619 5.4298 52.7038C8.12669 51.1803 11.7506 50.33 15.6394 50.33C19.5282 50.33 23.1522 51.1685 25.8491 52.7038C26.427 53.0227 26.9326 53.377 27.3781 53.7312C28.8108 54.8768 29.5814 56.1995 29.5814 57.5222Z" fill="#FF9900"/>
<path d="M29.5813 57.5222C29.5813 59.27 28.257 60.9824 25.849 62.3406C23.1521 63.864 19.5282 64.7143 15.6394 64.7143C11.7506 64.7143 8.12665 63.8758 5.42977 62.3406C5.08062 62.1398 4.74351 61.939 4.44252 61.7265C3.0098 60.5691 2.23926 59.2582 2.23926 57.9355C2.23926 56.1877 3.56362 54.4753 5.97155 53.1171C8.66844 51.5937 12.2924 50.7434 16.1812 50.7434C20.07 50.7434 23.6939 51.5819 26.3908 53.1171C26.74 53.3179 27.0771 53.5305 27.3781 53.7431C28.8108 54.8768 29.5813 56.1995 29.5813 57.5222Z" fill="#FFC400"/>
<path d="M19.0948 57.8765C18.7095 57.6521 18.2881 57.5458 17.8427 57.534C17.3972 57.5222 16.8193 57.6167 16.0969 57.7938C15.3866 57.9828 14.7364 58.1245 14.1706 58.219C13.6047 58.3252 13.0629 58.3843 12.5332 58.3961C12.0155 58.4079 11.5098 58.3607 11.0282 58.2544C10.5346 58.1481 10.0651 57.9591 9.59551 57.6993C8.78885 57.2387 8.39154 56.7191 8.39154 56.1404C8.39154 55.5618 8.77681 55.0067 9.53531 54.4753L8.01831 53.6131L9.16208 52.9636L10.7152 53.8375C11.6784 53.4242 12.6897 53.2589 13.7492 53.3179C14.8087 53.3769 15.808 53.6722 16.735 54.1918L14.6762 55.361C14.1104 55.0421 13.5566 54.865 13.0388 54.8296C12.4971 54.8059 12.0396 54.9122 11.6543 55.1366C11.257 55.3492 11.0643 55.5854 11.0764 55.8334C11.0884 56.0814 11.2811 56.3176 11.6784 56.5302C12.0396 56.7309 12.4369 56.8372 12.8583 56.849C13.2917 56.849 13.9057 56.7664 14.7003 56.5656C15.4949 56.3766 16.1812 56.2349 16.7471 56.1404C17.3129 56.046 17.8547 55.9987 18.3604 55.9987C18.866 55.9987 19.3476 56.0578 19.8051 56.1641C20.2626 56.2703 20.7081 56.4475 21.1415 56.6955C21.9482 57.1561 22.3575 57.6639 22.3575 58.2426C22.3575 58.8094 21.9602 59.3763 21.1656 59.9314L22.5863 60.7344L21.4546 61.3722L20.0459 60.5691C18.9624 61.0651 17.8668 61.2895 16.735 61.2659C15.6153 61.2423 14.5558 60.947 13.5806 60.392L15.6515 59.2346C16.2173 59.5535 16.7832 59.7306 17.3611 59.7424C17.927 59.766 18.4687 59.6243 18.9744 59.3409C19.3958 59.1047 19.6125 58.8567 19.6366 58.5851C19.6486 58.3252 19.4801 58.089 19.0948 57.8765Z" fill="#FFDE38"/>
<path d="M0 52.4676V54.6997C0.0120397 56.8608 1.46884 59.022 4.38244 60.6754C10.2217 63.9821 19.6969 63.9821 25.5361 60.6754C28.4497 59.022 29.9065 56.8608 29.9186 54.6997V52.444L0 52.4676Z" fill="#FF9900"/>
<path d="M25.536 46.4801C19.6968 43.1733 10.2216 43.1733 4.38236 46.4801C-1.45688 49.7868 -1.45688 55.1484 4.38236 58.467C10.2216 61.7737 19.6968 61.7737 25.536 58.467C31.3873 55.1602 31.3873 49.7868 25.536 46.4801Z" fill="#FFDE38"/>
<path d="M28.2933 52.4676C28.2933 54.1328 27.0291 55.7743 24.7175 57.0852C22.141 58.5496 18.6736 59.3527 14.9654 59.3527C11.2451 59.3527 7.77768 58.5496 5.20119 57.0852C4.86408 56.8963 4.55105 56.6955 4.2621 56.4947C2.5645 55.3019 1.63745 53.8966 1.63745 52.4794C1.63745 50.8142 2.90162 49.1727 5.20119 47.8618C7.78972 46.3974 11.2571 45.5943 14.9654 45.5943C18.6856 45.5943 22.153 46.3974 24.7295 47.8618C25.2713 48.1688 25.7649 48.4995 26.1984 48.842C27.5588 49.9403 28.2933 51.204 28.2933 52.4676Z" fill="#FF9900"/>
<path d="M28.2931 52.4676C28.2931 54.1328 27.029 55.7743 24.7174 57.0852C22.1409 58.5496 18.6734 59.3527 14.9652 59.3527C11.245 59.3527 7.77755 58.5496 5.20106 57.0852C4.86395 56.8963 4.55092 56.6955 4.26197 56.4947C2.88945 55.3964 2.15503 54.1328 2.15503 52.8691C2.15503 51.204 3.41919 49.5624 5.73081 48.2515C8.31934 46.7871 11.7868 45.984 15.495 45.984C19.2152 45.984 22.6826 46.7871 25.2591 48.2515C25.5962 48.4405 25.9093 48.6412 26.2103 48.842C27.5587 49.9403 28.2931 51.204 28.2931 52.4676Z" fill="#FFC400"/>
<path d="M13.6891 54.3572C14.0624 54.1446 14.255 53.9202 14.267 53.6722C14.2791 53.4242 14.1346 53.1171 13.8216 52.7274C13.5085 52.3377 13.2678 51.9952 13.0992 51.6882C12.9186 51.3811 12.8223 51.0859 12.8102 50.8024C12.7982 50.519 12.8704 50.2474 13.051 49.9876C13.2316 49.7277 13.5447 49.4679 13.9901 49.2081C14.7607 48.7711 15.6396 48.5586 16.6148 48.5586C17.59 48.5586 18.5411 48.7711 19.4321 49.1845L20.8889 48.3578L21.9845 48.9719L20.5036 49.8104C21.2019 50.33 21.4908 50.8733 21.3825 51.452C21.2741 52.0306 20.7805 52.5621 19.9016 53.0699L17.9391 51.948C18.4809 51.6409 18.7819 51.3457 18.8301 51.0622C18.8782 50.7788 18.7097 50.5308 18.3364 50.3182C17.9632 50.1056 17.5659 49.9994 17.1566 50.0112C16.7352 50.0112 16.3499 50.1175 15.9767 50.33C15.6275 50.5308 15.4469 50.7434 15.4469 50.9678C15.4349 51.204 15.5914 51.5346 15.9165 51.9598C16.2415 52.3967 16.4823 52.7628 16.6389 53.0699C16.7833 53.3888 16.8556 53.684 16.8556 53.9556C16.8556 54.2273 16.7593 54.4871 16.5787 54.7469C16.3981 54.9949 16.0971 55.2429 15.6757 55.4673C14.9051 55.9042 14.0262 56.1286 13.0631 56.1286C12.0999 56.1286 11.1488 55.9161 10.2097 55.4791L8.84919 56.2467L7.76562 55.6326L9.12611 54.865C8.29537 54.2745 7.89806 53.684 7.94622 53.0699C7.99438 52.4558 8.488 51.8889 9.4271 51.3575L11.4016 52.4794C10.8598 52.7865 10.5709 53.1053 10.5347 53.4124C10.5107 53.7194 10.7274 54.0147 11.209 54.2863C11.6183 54.5107 12.0397 54.6288 12.4852 54.6406C12.9306 54.6524 13.3279 54.5579 13.6891 54.3572Z" fill="#FFDE38"/>
<defs>
<clipPath id="clip0_62_222">
<rect width="41" height="72" fill="white" transform="matrix(-1 0 0 1 77 24)"/>
</clipPath>
</defs>
</svg>
