<svg width="6" height="6" viewBox="0 0 6 6" fill="none" xmlns="http://www.w3.org/2000/svg">
<path d="M0.253826 3.45346L0.647047 3.45591C0.705847 3.75849 0.822221 4.05248 0.998619 4.31953L0.719322 4.59638C0.618873 4.6956 0.618873 4.85607 0.716872 4.95652L1.01822 5.26155C1.11744 5.36199 1.27792 5.36199 1.37837 5.264L1.65766 4.98715C1.92226 5.166 2.21503 5.28727 2.5176 5.34852L2.51515 5.74174C2.51393 5.88261 2.62785 5.99654 2.76873 5.99776L3.19747 6.00021C3.33835 6.00144 3.45227 5.88751 3.45349 5.74664L3.45594 5.35342C3.75852 5.29462 4.05251 5.17825 4.31956 5.00185L4.59641 5.28115C4.69563 5.38159 4.85611 5.38159 4.95655 5.2836L5.26158 4.98225C5.36203 4.88302 5.36203 4.72255 5.26403 4.6221L4.98718 4.3428C5.16603 4.07821 5.2873 3.78544 5.34855 3.48286L5.74177 3.48531C5.88265 3.48654 5.99657 3.37261 5.99779 3.23174L6.00024 2.803C6.00147 2.66212 5.88755 2.5482 5.74667 2.54697L5.35345 2.54452C5.29465 2.24195 5.17828 1.94795 5.00188 1.68091L5.28118 1.40406C5.38163 1.30484 5.38163 1.14436 5.28363 1.04391L4.98228 0.738891C4.88305 0.638442 4.72258 0.638442 4.62213 0.736441L4.34284 1.01329C4.07824 0.83444 3.78547 0.713166 3.48289 0.651917L3.48534 0.258696C3.48657 0.117822 3.37265 0.00389837 3.23177 0.00267339L2.80303 0.00022341C2.66215 -0.00100158 2.54823 0.112922 2.547 0.253796L2.54333 0.647017C2.23953 0.705816 1.94553 0.82219 1.67971 0.998588L1.40286 0.719291C1.30364 0.618842 1.14317 0.618842 1.04272 0.716841L0.738922 1.01819C0.638472 1.11741 0.638473 1.27789 0.736472 1.37833L1.01332 1.65763C0.834471 1.92223 0.713197 2.215 0.651947 2.51757L0.258726 2.51512C0.117853 2.5139 0.00392889 2.62782 0.0027039 2.7687L0.000253928 3.19744C-0.00097106 3.33709 0.112953 3.45224 0.253826 3.45346ZM2.19666 2.18805C2.645 1.74461 3.36652 1.74828 3.80997 2.19663C4.25341 2.64497 4.24974 3.36649 3.80139 3.80994C3.35305 4.25338 2.63153 4.24971 2.18808 3.80136C1.74464 3.35301 1.74831 2.6315 2.19666 2.18805Z" fill="#1A3C7A"/>
</svg>
