<svg width="76" height="49" viewBox="0 0 76 49" fill="none" xmlns="http://www.w3.org/2000/svg">
<path d="M73.7317 45.1462H69.196V17.1936C69.196 16.3195 68.4878 15.6113 67.6137 15.6113H61.7068C60.8327 15.6113 60.1245 16.3195 60.1245 17.1936V45.1462H51.1937V22.2567C51.1937 21.3826 50.4856 20.6744 49.6115 20.6744H43.7045C42.8304 20.6744 42.1223 21.3826 42.1223 22.2567V45.1462H33.1913V36.6021C33.1913 35.728 32.4831 35.0199 31.609 35.0199H25.7023C24.8282 35.0199 24.12 35.728 24.12 36.6021V45.1462H15.1893V32.3829C15.1893 31.5087 14.4811 30.8006 13.607 30.8006H7.70028C6.82616 30.8006 6.118 31.5087 6.118 32.3829V45.1462H1.58228C0.708563 45.1462 0 45.8544 0 46.7285C0 47.6026 0.708162 48.3108 1.58228 48.3108H73.7317C74.6058 48.3108 75.314 47.6026 75.314 46.7285C75.314 45.8544 74.6058 45.1462 73.7317 45.1462ZM12.0251 45.1462H9.28256V33.9651H12.0251V45.1462ZM30.0271 45.1462H27.2846V38.1844H30.0271V45.1462ZM48.0294 45.1462H45.2868V23.839H48.0294V45.1462ZM66.0316 45.1462H63.2891V18.7757H66.0316V45.1462Z" fill="#22337D"/>
<path d="M64.2384 0C61.2811 0 58.8009 2.07392 58.1712 4.84355L51.3645 6.54523C50.2226 5.1281 48.4748 4.21927 46.5175 4.21927C43.0856 4.21927 40.2941 7.01098 40.2941 10.4426C40.2941 11.2487 40.4499 12.0187 40.7302 12.7264L32.1923 21.2643C31.2151 20.6254 30.049 20.2523 28.7966 20.2523C26.5056 20.2523 24.5013 21.4977 23.4209 23.3459L17.2878 19.666C17.2948 19.5458 17.2992 19.4248 17.2992 19.303C17.2992 15.8713 14.5075 13.0796 11.0759 13.0796C7.64425 13.0796 4.85254 15.8713 4.85254 19.303C4.85254 22.7346 7.64425 25.5263 11.0759 25.5263C13.2377 25.5263 15.1447 24.418 16.2608 22.74L22.5748 26.5285C22.6035 29.9358 25.383 32.6991 28.797 32.6991C32.2288 32.6991 35.0203 29.9073 35.0203 26.4757C35.0203 25.4437 34.7663 24.4702 34.3198 23.6125L42.6329 15.2994C43.6985 16.1535 45.0492 16.666 46.5179 16.666C49.9495 16.666 52.7413 13.8743 52.7413 10.4426C52.7413 10.1159 52.7156 9.79507 52.6668 9.48142L58.2964 8.07413C59.086 10.6046 61.4511 12.4465 64.2386 12.4465C67.6702 12.4465 70.4619 9.6548 70.4619 6.22316C70.4619 2.79151 67.67 0 64.2384 0ZM11.0757 22.362C9.38907 22.362 8.01669 20.9896 8.01669 19.303C8.01669 17.6164 9.38907 16.244 11.0757 16.244C12.7623 16.244 14.1347 17.6164 14.1347 19.303C14.1347 20.9898 12.7623 22.362 11.0757 22.362ZM28.7966 29.5349C27.11 29.5349 25.7376 28.1625 25.7376 26.4759C25.7376 24.7893 27.11 23.4169 28.7966 23.4169C30.4832 23.4169 31.8556 24.7893 31.8556 26.4759C31.8556 28.1625 30.4832 29.5349 28.7966 29.5349ZM46.5175 13.5016C44.8309 13.5016 43.4585 12.1293 43.4585 10.4426C43.4585 8.756 44.8309 7.38363 46.5175 7.38363C48.2041 7.38363 49.5765 8.756 49.5765 10.4426C49.5765 12.1293 48.2041 13.5016 46.5175 13.5016ZM64.2384 9.28236C62.5518 9.28236 61.1794 7.90998 61.1794 6.22336C61.1794 4.53673 62.5518 3.16435 64.2384 3.16435C65.925 3.16435 67.2974 4.53673 67.2974 6.22336C67.2974 7.90998 65.925 9.28236 64.2384 9.28236Z" fill="#22337D"/>
</svg>
